# xmcd CD database file
#
# Track frame offsets:
#	150
#	10302
#	25139
#	40202
#	47251
#	60951
#	74095
#	85115
#	102761
#	123839
#	141873
#	156724
#	180035
#	194823
#	210104
#
# Disc length: 3201 seconds
#
# Revision: 0
# Processed by: cddbd v1.5.2PL0 Copyright (c) Steve Scherf et al.
# Submitted via: CDex 1.51
#
DISCID=c10c7f0f
DTITLE=Louis Armstrong - What a Wonderful Duet - 3
DYEAR=1900
DGENRE=Jazz
TTITLE0=What a wonderful world
TTITLE1=Mack the knife
TTITLE2=La vie en rose
TTITLE3=When the saints go marchin' in
TTITLE4=St. Louis Blues
TTITLE5=Kiss to built a dream on
TTITLE6=Hello Dolly
TTITLE7=Cabaret
TTITLE8=Jeepers Creepers
TTITLE9=Ain't missbehavin'
TTITLE10=C'est si bon
TTITLE11=Muskrat Ramble
TTITLE12=On the sunny side of the street
TTITLE13=High Society
TTITLE14=New Orleans function
EXTD=
EXTT0=
EXTT1=
EXTT2=
EXTT3=
EXTT4=
EXTT5=
EXTT6=
EXTT7=
EXTT8=
EXTT9=
EXTT10=
EXTT11=
EXTT12=
EXTT13=
EXTT14=
PLAYORDER=
